<?xml version="1.0" encoding="UTF-8" standalone="no"?>
<!-- Created with Inkscape (http://www.inkscape.org/) -->

<svg
   width="210mm"
   height="25.891983mm"
   viewBox="0 0 210 25.891983"
   version="1.1"
   id="svg888"
   sodipodi:docname="header.svg"
   inkscape:version="1.1 (c4e8f9ed74, 2021-05-24)"
   xmlns:inkscape="http://www.inkscape.org/namespaces/inkscape"
   xmlns:sodipodi="http://sodipodi.sourceforge.net/DTD/sodipodi-0.dtd"
   xmlns="http://www.w3.org/2000/svg"
   xmlns:svg="http://www.w3.org/2000/svg">
  <sodipodi:namedview
     id="namedview10"
     pagecolor="#ffffff"
     bordercolor="#666666"
     borderopacity="1.0"
     inkscape:pageshadow="2"
     inkscape:pageopacity="0.0"
     inkscape:pagecheckerboard="0"
     inkscape:document-units="mm"
     showgrid="false"
     inkscape:zoom="1.5686012"
     inkscape:cx="396.85039"
     inkscape:cy="49.088322"
     inkscape:window-width="1920"
     inkscape:window-height="1063"
     inkscape:window-x="0"
     inkscape:window-y="0"
     inkscape:window-maximized="1"
     inkscape:current-layer="g2838" />
  <defs
     id="defs885" />
  <g
     id="layer1">
    <g
       id="g2838"
       transform="matrix(1.3495574,0,0,1.3495574,-31.720083,-131.03957)">
      <g
         aria-label="EVERYTHING!"
         id="text2359"
         style="font-size:24.2102px;line-height:1.25;font-family:Generic;-inkscape-font-specification:Generic;text-align:center;letter-spacing:0px;text-anchor:middle;stroke-width:0.363153">
        <path
           d="m 35.815004,107.63344 c 0,0 0,0 0,0 0,0 0,0 0,0 0.266312,-0.29052 0.459994,-1.11367 0.484204,-1.54945 0,-1.50103 -1.452612,-0.91999 -2.324179,-1.11367 -0.895778,-0.19368 -1.404192,0.26631 -2.033657,0.14526 -0.532624,-0.0968 -1.912606,0.48421 -3.244167,-0.0726 -0.605255,-0.26631 -0.895777,-0.60525 -0.919987,-1.40419 -0.02421,-0.9442 0.145261,-1.47682 1.065248,-1.79156 0.193682,-0.0726 0.605255,-0.12105 0.895778,-0.0484 0.02421,0 0.629465,0.0726 0.677885,0.0726 0.798937,0.19369 1.16209,0.14527 1.476823,0.0726 0.145261,-0.0242 1.016828,-0.26632 1.210509,-0.2179 0.193682,-0.0484 0.653676,0.0242 0.871568,0.0726 0.581044,0.0968 0.363153,0.0242 1.28314,0.0242 0.750516,0 1.404192,0.12106 1.646294,-0.55683 0.169471,-0.50841 0.193681,-0.82315 0.169471,-1.355771 -0.04842,-0.629466 -0.121051,-1.16209 -0.581045,-1.525243 -0.556834,-0.459994 -3.462058,-0.242102 -4.067313,-0.169471 -0.02421,0.02421 -0.895777,-0.07263 -1.839975,-0.07263 -0.435784,-0.02421 -2.638912,0.04842 -2.687332,0.07263 -0.04842,-0.02421 -1.16209,-0.07263 -1.21051,-0.07263 -0.02421,0 -0.04842,0 -0.09684,0 -0.242102,0 -0.823147,0.04842 -0.823147,0.04842 -0.774726,-0.02421 -1.404191,-0.121051 -1.815765,0.532625 -0.338943,0.556834 -0.04842,0.944198 -0.145261,2.17892 -0.169471,2.08207 -0.09684,2.68733 -0.121051,2.75996 0,0.0484 -0.09684,0.91999 -0.09684,1.1863 0,0.0242 0.09684,1.9126 0.09684,1.9126 0,0.0484 -0.07263,2.03366 -0.07263,2.08208 0,0.21789 0.09684,0.72631 0.145262,0.91999 0.07263,0.26631 -0.02421,0.75052 -0.04842,1.04104 -0.07263,0.53262 -0.04842,0.62946 -0.04842,0.67788 -0.02421,0.0484 -0.242102,1.37999 -0.121051,1.81577 0.09684,0.38736 0.145261,1.25893 0.363153,1.74313 0.02421,0.0484 0.07263,0.0726 0.09684,0.12105 0.07263,0.0484 0.121051,0.12106 0.217891,0.12106 0.04842,0.0242 0.532625,0.16947 0.919988,0.33894 0.968408,0.38736 1.307351,0.0726 2.638912,0.0726 1.646293,0.0242 1.21051,-0.36315 2.832593,0.0242 0.459994,0.0968 1.622083,0 2.39681,0.0242 0.242102,0 0.508414,0.0242 0.774726,-0.0484 0.04842,0.0242 0.484204,-0.0484 0.581045,-0.0484 0.290522,-0.0242 1.670504,0.19368 2.154708,-0.0726 0.314732,-0.16947 0.363153,-0.38737 0.435783,-0.55684 0.02421,-0.0968 0.04842,-0.19368 0.04842,-0.29052 0.02421,-0.0726 0.04842,-0.14526 0.04842,-0.21789 0,-0.0242 0.04842,-0.41157 0.04842,-0.41157 0,-0.0726 -0.02421,-0.14527 0.02421,-0.19369 -0.07263,-0.21789 0,-1.01682 -0.266313,-1.50103 -0.338942,-0.53262 -1.041038,-0.55683 -1.670503,-0.60525 -0.266313,0 -1.21051,0.0242 -1.404192,0.0726 -0.435784,0.0726 -0.968408,-0.0242 -1.283141,-0.0242 -2.663121,-0.12105 -3.897842,0.36315 -4.454676,-0.46 -0.508414,-0.7263 -0.314733,-3.00206 0.726306,-2.97785 0.169471,0 0.338943,-0.0242 0.484204,0.0242 0.242102,0.0484 1.355771,-0.26631 1.428402,-0.2421 0.07263,0.0242 0.145261,0.0242 0.193681,0.0242 0.581045,0.14526 0.871567,0.12105 1.815765,0.0968 1.16209,-0.0484 1.331561,0.33894 2.324179,-0.0726 0.266312,-0.12105 0.629465,-0.2421 0.798937,-0.60526 0,0 0,0 0,0 z"
           id="path888" />
        <path
           d="m 39.615991,97.876732 c -0.798937,0.145261 -1.355771,0.145261 -1.597873,0.581045 -0.266313,0.556834 -0.217892,0.871567 0.07263,1.452612 0.435784,0.871571 0.435784,1.549451 1.089459,2.929431 0.484204,0.99262 0.217892,1.04104 0.532624,1.8884 0.07263,0.16947 0.581045,1.21051 0.823147,2.03365 0.363153,1.25894 0.459994,0.84736 0.750516,1.81577 0.02421,0.0726 0.121051,0.62947 0.290523,1.06525 0.02421,0.0242 0.266312,0.77473 0.266312,0.79894 0.07263,0.33894 0.411573,0.94419 0.750516,1.9126 0.314733,0.91999 0.968408,1.54945 1.13788,1.8884 0.169471,0.43578 0.242102,1.28314 0.992618,1.28314 0.169471,-0.0242 0.338943,0 0.508414,-0.0242 0.944198,-0.19368 1.041038,0.0242 1.404191,0.0242 0.508415,-0.0242 0.532625,-0.0726 1.065249,-0.65368 0.314733,-0.36315 0.387363,-0.53262 0.459994,-0.70209 0.266312,-0.65368 0.411573,-1.21051 0.435784,-1.37999 0.169471,-1.11366 0.387363,-1.23472 0.508414,-1.54945 0.193681,-0.55683 0.07263,-0.43578 0.242102,-0.99262 0.07263,-0.26631 0.895777,-1.88839 0.992618,-2.34839 0.09684,-0.58104 0.750516,-2.54207 1.016828,-3.07469 0.242102,-0.45999 0.435784,-0.9442 0.435784,-0.99262 0.217892,-0.87157 0.411573,-0.84736 0.556835,-1.96103 0.145261,-1.23472 0.290522,-0.65367 0.484204,-1.59787 0.02421,-0.14526 0.07263,-0.484202 0.07263,-0.484202 0.169472,-0.629466 0.459994,-0.895778 0.290523,-1.428402 -0.09684,-0.363153 -0.629466,-0.290523 -2.808384,-0.314733 -0.629465,0 -1.041038,0.338943 -1.23472,0.750516 -0.798936,1.815761 -2.106287,7.093591 -2.42102,7.916731 -0.09684,0.29053 -0.217892,0.91999 -0.823146,1.16209 -0.411574,0.14527 -0.774727,-0.0242 -1.016829,-0.41157 -0.290522,-0.4842 -1.113669,-3.24417 -1.1863,-3.60732 -0.242102,-1.28314 -1.089459,-1.21051 -0.968408,-1.88839 0.217892,-1.16209 -0.556834,-2.009451 -0.750516,-2.784177 -0.121051,-0.508415 -0.169471,-0.871568 -0.653675,-1.065249 -0.266312,-0.09684 -1.089459,-0.314733 -1.355771,-0.266312 -0.121051,-0.02421 -0.242102,0 -0.363153,0.02421 z"
           id="path890" />
        <path
           d="m 66.682952,107.63344 c 0,0 0,0 0,0 0,0 0,0 0,0 0.266313,-0.29052 0.459994,-1.11367 0.484204,-1.54945 0,-1.50103 -1.452612,-0.91999 -2.324179,-1.11367 -0.895777,-0.19368 -1.404191,0.26631 -2.033657,0.14526 -0.532624,-0.0968 -1.912605,0.48421 -3.244166,-0.0726 -0.605255,-0.26631 -0.895778,-0.60525 -0.919988,-1.40419 -0.02421,-0.9442 0.145261,-1.47682 1.065249,-1.79156 0.193682,-0.0726 0.605255,-0.12105 0.895777,-0.0484 0.02421,0 0.629465,0.0726 0.677886,0.0726 0.798936,0.19369 1.162089,0.14527 1.476822,0.0726 0.145261,-0.0242 1.016828,-0.26632 1.21051,-0.2179 0.193682,-0.0484 0.653675,0.0242 0.871567,0.0726 0.581045,0.0968 0.363153,0.0242 1.283141,0.0242 0.750516,0 1.404191,0.12106 1.646293,-0.55683 0.169472,-0.50841 0.193682,-0.82315 0.169472,-1.355771 -0.04842,-0.629466 -0.121051,-1.16209 -0.581045,-1.525243 -0.556835,-0.459994 -3.462059,-0.242102 -4.067314,-0.169471 -0.02421,0.02421 -0.895777,-0.07263 -1.839975,-0.07263 -0.435783,-0.02421 -2.638911,0.04842 -2.687332,0.07263 -0.04842,-0.02421 -1.162089,-0.07263 -1.21051,-0.07263 -0.02421,0 -0.04842,0 -0.09684,0 -0.242102,0 -0.823146,0.04842 -0.823146,0.04842 -0.774727,-0.02421 -1.404192,-0.121051 -1.815765,0.532625 -0.338943,0.556834 -0.04842,0.944198 -0.145262,2.17892 -0.169471,2.08207 -0.09684,2.68733 -0.121051,2.75996 0,0.0484 -0.09684,0.91999 -0.09684,1.1863 0,0.0242 0.09684,1.9126 0.09684,1.9126 0,0.0484 -0.07263,2.03366 -0.07263,2.08208 0,0.21789 0.09684,0.72631 0.145261,0.91999 0.07263,0.26631 -0.02421,0.75052 -0.04842,1.04104 -0.07263,0.53262 -0.04842,0.62946 -0.04842,0.67788 -0.02421,0.0484 -0.242102,1.37999 -0.121051,1.81577 0.09684,0.38736 0.145261,1.25893 0.363153,1.74313 0.02421,0.0484 0.07263,0.0726 0.09684,0.12105 0.07263,0.0484 0.121051,0.12106 0.217892,0.12106 0.04842,0.0242 0.532624,0.16947 0.919987,0.33894 0.968408,0.38736 1.307351,0.0726 2.638912,0.0726 1.646294,0.0242 1.21051,-0.36315 2.832593,0.0242 0.459994,0.0968 1.622084,0 2.39681,0.0242 0.242102,0 0.508414,0.0242 0.774727,-0.0484 0.04842,0.0242 0.484204,-0.0484 0.581044,-0.0484 0.290523,-0.0242 1.670504,0.19368 2.154708,-0.0726 0.314733,-0.16947 0.363153,-0.38737 0.435784,-0.55684 0.02421,-0.0968 0.04842,-0.19368 0.04842,-0.29052 0.02421,-0.0726 0.04842,-0.14526 0.04842,-0.21789 0,-0.0242 0.04842,-0.41157 0.04842,-0.41157 0,-0.0726 -0.02421,-0.14527 0.02421,-0.19369 -0.07263,-0.21789 0,-1.01682 -0.266312,-1.50103 -0.338943,-0.53262 -1.041039,-0.55683 -1.670504,-0.60525 -0.266312,0 -1.21051,0.0242 -1.404191,0.0726 -0.435784,0.0726 -0.968408,-0.0242 -1.283141,-0.0242 -2.663122,-0.12105 -3.897842,0.36315 -4.454677,-0.46 -0.508414,-0.7263 -0.314732,-3.00206 0.726306,-2.97785 0.169472,0 0.338943,-0.0242 0.484204,0.0242 0.242102,0.0484 1.355771,-0.26631 1.428402,-0.2421 0.07263,0.0242 0.145261,0.0242 0.193682,0.0242 0.581044,0.14526 0.871567,0.12105 1.815765,0.0968 1.162089,-0.0484 1.331561,0.33894 2.324179,-0.0726 0.266312,-0.12105 0.629465,-0.2421 0.798936,-0.60526 0,0 0,0 0,0 z"
           id="path892" />
        <path
           d="m 72.808117,115.64702 c 0.847357,-0.19368 0.919988,-0.36315 0.968408,-1.23472 0,-0.16947 0.09684,-0.53263 0.09684,-0.62947 0,-0.0242 0.07263,-0.67788 0.07263,-0.70209 0.314732,-2.15471 -0.750516,-4.11574 1.307351,-4.06732 0.944197,0.0242 2.44523,-0.38736 3.510478,0.38737 0.459994,0.33894 0.871568,1.21051 0.992619,1.74313 0.217891,0.91999 0.121051,1.01683 0.266312,1.76735 0.07263,0.29052 0.314732,1.25893 0.338943,1.59787 0,0.65367 0.169471,1.23472 0.847357,1.21051 1.670503,-0.0242 2.227338,0.21789 2.735752,-0.0484 0.556835,-0.31473 0.677886,-1.06525 0.484204,-1.62209 -0.09684,-0.33894 -0.266312,-0.77472 -0.266312,-1.23472 0.02421,-0.77472 0.145261,-1.37998 -0.02421,-1.9126 -0.435784,-1.59787 0,-1.01683 -0.871567,-2.59049 -0.314733,-0.60526 -0.484204,-1.16209 -0.09684,-1.76735 0.338943,-0.53262 0.338943,-0.19368 0.871567,-1.81576 0.121051,-0.36315 0.314732,-1.23472 0.290522,-1.6463 -0.07263,-1.74313 -0.653675,-2.22733 -0.847357,-2.54207 -0.629465,-1.041035 -0.653675,-0.798933 -1.28314,-1.186296 -0.338943,-0.193682 -0.605255,-0.459994 -0.992618,-0.629465 -1.331561,-0.629465 -2.590492,-0.217892 -3.60732,-0.435784 -0.363153,-0.09684 -1.452612,-0.02421 -1.912606,-0.07263 -0.435783,-0.04842 -0.992618,0.193681 -1.718924,0 -0.556835,-0.169472 -0.847357,-0.04842 -1.597873,0 -0.242102,0 -0.968408,-0.217892 -1.815765,0.314732 -0.919988,0.581045 -0.629465,1.355771 -0.726306,2.590493 -0.07263,0.82315 0.193681,1.21051 0.169471,1.52524 0.121051,0.29052 -0.217892,0.84736 -0.242102,2.27576 -0.02421,0.12105 0.169472,1.1863 0.121051,1.28314 0.04842,0.19368 0.02421,0.58105 -0.04842,1.37998 0,0.16947 0.145261,0.67789 0.02421,1.23472 -0.217892,1.11367 -0.04842,1.71893 0.02421,3.38943 0,0.12105 -0.09684,1.25893 0,1.79155 0.02421,0.0726 -0.02421,0.16948 0.02421,0.26632 0,0.0242 0,0.0484 -0.02421,0.0484 0,0.0484 0,0.29052 0,0.4842 0,0.26631 0.07263,0.62947 0.338943,0.75052 0.290522,0.16947 0.459994,0.12105 1.331561,0.14526 0.02421,0 0.07263,-0.0484 0.09684,-0.0242 0.193681,0.0242 0.847357,0.0484 1.162089,-0.0242 z m 1.21051,-12.22615 c -0.02421,-0.0726 0.02421,-0.14526 0.02421,-0.2421 -0.02421,-0.19369 0,-0.2179 0.02421,-0.31474 0.02421,-0.2421 0.02421,-0.55683 0.314732,-0.87156 0.290523,-0.31474 0.653676,-0.33895 0.944198,-0.38737 1.016828,-0.14526 2.033657,-0.26631 3.050485,0.0242 0.895778,0.2421 1.16209,0.31474 1.476822,1.16209 0.169472,0.43579 0.217892,1.04104 0.02421,1.59788 -0.459994,1.25893 -0.314733,1.40419 -1.331561,1.62208 -0.653676,0.14526 -1.258931,-0.0242 -1.791555,0.0242 -0.07263,0 -0.581045,0.0242 -1.331561,0 -0.387363,0 -0.847357,-0.12105 -1.113669,-0.43578 -0.363153,-0.41158 -0.217892,-1.91261 -0.290523,-2.17892 z"
           id="path894" />
        <path
           d="m 90.481525,115.28387 c 0.121051,0.45999 0.508414,0.55683 0.992618,0.53262 0.677886,-0.0726 0.508415,0 0.581045,-0.0242 0.04842,-0.0242 0.121051,-0.0242 0.193682,-0.0242 0.459994,0 0.798936,-0.0968 0.944198,-0.12105 0.581044,-0.0968 0.895777,0 1.016828,-0.19368 0.266312,-0.14526 0.290522,-0.67789 0.290522,-0.72631 0.121051,-0.53262 0.09684,-1.13788 0,-1.71892 -0.04842,-0.31474 -0.04842,-0.43579 0.07263,-1.13788 0.04842,-0.48421 -0.04842,-1.01683 -0.04842,-1.08946 0,-2.08208 0.726306,-2.51786 1.113669,-3.3168 0.605255,-1.21051 0.508414,-0.99262 0.871567,-1.50103 0.459994,-0.65368 0.266312,-0.60526 0.944198,-1.62209 0.847357,-1.28314 0.411573,-1.2105 1.23472,-2.27575 0.605255,-0.75052 0.532624,-0.67789 0.823147,-1.1863 0.07263,-0.14526 0.823151,-1.936819 0.847361,-2.227342 0.0726,-0.750516 -1.258935,-0.556834 -1.501037,-0.581045 -0.04842,-0.02421 -0.895777,0.02421 -0.944198,0.04842 -1.089459,0.09684 -1.137879,0.581045 -1.791554,1.28314 -0.387363,0.387364 -2.033657,3.365217 -2.057867,3.389427 -0.217892,0.50842 -0.242102,0.72631 -0.435784,0.96841 -0.145261,0.19368 -0.532624,0.4842 -0.895777,0.53262 -0.653676,0.0969 -1.13788,-0.7263 -1.573663,-1.35577 -0.581045,-0.84735 -0.798937,-1.04104 -1.21051,-2.03365 -0.04842,-0.14526 -0.121051,-0.48421 -0.581045,-1.137884 -1.065249,-1.428401 -0.629465,-1.476822 -2.44523,-1.743134 -0.09684,0 -1.379981,0.07263 -1.743134,0.484204 -0.411574,0.459994 -0.242102,0.750516 -0.02421,1.331561 0.798937,2.154713 2.009447,3.607323 2.32418,4.260993 0.266312,0.53263 0.217891,0.7021 0.677885,1.40419 0.435784,0.62947 0.581045,1.1863 1.016829,1.69472 0.895777,1.06525 0.677885,0.43578 1.162089,2.29997 0.387363,1.4284 0.04842,1.98523 0.09684,3.07469 0,0.0968 0.02421,0.16947 0,0.2421 0,0.0726 0.02421,0.16948 0.02421,0.24211 0.07263,1.23472 -0.04842,1.93681 0.02421,2.22734 z"
           id="path896" />
        <path
           d="m 105.49182,114.67861 c 0,0.82315 0.46,1.01683 1.08946,1.11367 0.0242,0.0242 0.38736,0.0484 0.43578,0.0242 0.0242,0 0.0484,0 0.0726,0 0.0726,0.0242 0.14527,0 0.2179,0 0.58104,-0.0726 1.81576,0.36315 2.25155,-1.06525 0.26631,-0.91999 -0.0969,-1.79155 0.0968,-3.12312 0.0726,-0.50841 0,-1.28314 -0.0484,-1.40419 -0.0484,-0.19368 -0.0242,-0.41157 0,-0.62946 0.0484,-0.0726 0.19368,-0.89578 0.16947,-1.08946 -0.0242,-0.19368 0.0242,0 -0.0726,-0.9442 -0.0242,-0.0968 -0.0726,-0.19368 -0.0484,-0.31473 -0.0726,-0.19368 -0.14527,-0.77473 -0.0726,-1.04104 0.16947,-0.65368 0.0242,-2.27576 0.0242,-2.32418 0.12105,-0.43578 0.0484,-1.23472 0.33894,-1.62208 0.33894,-0.46 0.91999,-0.33894 1.1863,-0.38737 0.16947,-0.0484 1.64629,-0.19368 2.00944,-0.16947 1.96103,0.0968 1.47683,-1.13788 1.42841,-1.743131 -0.0968,-0.847357 0.0968,-1.501032 -0.50842,-1.743134 -0.36315,-0.145262 -1.13788,-0.217892 -1.47682,-0.169472 -1.28314,0.217892 -0.77473,0.169472 -1.71892,0.02421 -1.59788,-0.266312 -1.45262,0.121051 -2.54207,0 -1.25894,-0.145261 -0.87157,0.217892 -2.46945,0.02421 -1.23472,-0.145262 -2.22733,0.217891 -2.63891,0.09684 -1.45261,0.04842 -2.88101,-0.217891 -2.90522,1.016829 -0.0242,0.242102 0.0242,1.331558 0.0242,1.355768 0.0484,0.9442 0.14526,1.25893 1.86418,1.23472 0.62947,0 1.08946,0.16948 1.6463,0.16948 2.29997,-0.0726 1.59787,2.68733 1.6705,3.97047 0.12105,1.59787 -0.0726,1.54945 0.0484,2.00944 0.0968,0.46 0.29052,0.82315 0.0726,1.6463 -0.12105,0.4842 -0.0968,1.93681 -0.12105,2.20313 -0.14526,1.16209 0,1.40419 0,1.69471 -0.0242,1.45261 -0.0242,0.53262 -0.0242,1.1863 z"
           id="path898" />
        <path
           d="m 115.92642,112.83863 c 0.14526,1.21051 0,2.27576 0.96841,2.56629 0.0968,0.0484 1.40419,0.12105 1.54945,0.14526 0.4842,0 0.79894,-0.58105 0.96841,-0.75052 0.60525,-0.60525 0.60525,-0.9442 0.43578,-2.22734 -0.0968,-0.75051 0.26631,-1.33156 0.12105,-2.05786 0,-0.0726 0.0242,-0.12106 0.0242,-0.19369 0.0242,-0.12105 -0.0242,-0.9684 0.43579,-1.37998 0.55683,-0.50841 1.01682,-0.41157 2.13049,-0.4842 0.79894,-0.0242 0.72631,0.0242 0.91999,-0.0242 0.0242,0 0.0242,0.0242 0.14526,0 0.0726,0 0.16947,-0.0242 0.2421,0 0.0484,0 0.87157,-0.0968 1.50104,0.0726 1.23472,0.29052 0.91998,2.17892 1.11367,2.66312 0.0242,0 0.0242,0.0242 0.0242,0.0484 -0.0242,0.12105 0.0242,0.2421 0.0484,0.36315 0.0968,1.52525 -0.53263,3.51048 0.55683,3.92206 0.41157,0.16947 1.37998,-0.0242 1.86419,0.0968 0.16947,0.0484 0.53262,0.0242 0.58104,0.0242 0.53263,-0.0242 0.84736,-0.7021 0.96841,-1.25893 0.0726,-0.38737 -0.16947,-1.08946 -0.14526,-1.35577 0,-0.0968 0,-0.2179 0,-0.31474 0,-0.12105 0.21789,-1.21051 0.21789,-1.50103 -0.0242,-0.36315 -0.0968,-2.1305 -0.0484,-2.29997 0.12105,-0.38736 -0.0968,-1.71892 0.0242,-2.75996 0.0726,-0.60526 -0.0968,-1.37998 0.0242,-2.17892 0.12105,-0.87157 -0.0726,-1.33156 -0.14526,-2.34839 -0.0726,-1.23472 0.26631,-1.839973 0.16947,-2.469438 -0.16947,-0.944198 -0.75052,-0.847357 -2.73575,-0.919987 -0.50842,0 -1.06525,0.242102 -1.23472,0.798936 -0.0968,0.314733 -0.0242,0.726306 -0.0726,1.622079 0,0.16948 -0.12105,1.35578 0.0484,2.15471 0.16947,0.89578 -0.50842,1.71893 -1.40419,1.98524 -0.79894,0.2421 -1.71893,-0.14526 -2.66313,0 -0.31473,0.0726 -1.25893,0.0726 -1.6705,-0.0484 -0.45999,-0.14526 -0.75052,-0.33894 -1.04104,-0.84736 -0.29052,-0.53262 -0.0726,-0.96841 -0.0484,-1.35577 0.0726,-1.25893 -0.0484,-1.50103 -0.0484,-1.57366 -0.0484,-0.12105 -0.0242,-0.21789 -0.0484,-0.33895 -0.14526,-0.41157 0.31473,-1.501028 -0.29052,-2.057863 -0.36316,-0.314732 -1.25893,-0.411573 -1.62209,-0.338942 -0.53262,0.09684 -0.60525,0.290522 -1.08945,0.435783 -0.14527,0.04842 -0.46,0.04842 -0.67789,0.363153 -0.31473,0.459994 -0.14526,1.573659 -0.14526,2.130499 0.0242,0.62946 -0.0726,1.25893 0,1.59787 0.0484,0.41158 -0.0726,1.52524 0,2.20313 0.0726,0.89578 0,1.21051 -0.0242,1.69471 -0.12105,1.45262 0.0484,1.33156 0.0242,1.8884 0,0.0726 -0.0242,0.14526 0,0.21789 0.0242,0.0242 0.0242,0.0484 0,0.0726 -0.0242,0.0968 0,0.19368 0,0.29052 -0.0242,0.29053 -0.21789,1.06525 -0.0484,1.71893 0.16947,0.53262 -0.0242,1.16209 0.0968,2.00944 z"
           id="path900" />
        <path
           d="m 135.10088,98.167254 c -0.0484,0.02421 -1.28314,0.290523 -1.54945,0.435784 -0.26631,0.169471 -0.58105,0.581045 -0.58105,1.113669 0,2.154703 -0.29052,0.871563 -0.0242,3.728373 0,0.0968 -0.0484,0.19368 0,0.26631 -0.0484,0.12105 -0.0484,0.7021 -0.0484,0.79894 -0.0484,0.29052 0.0726,0.87156 0.12105,1.25893 0.12105,0.77472 -0.12105,0.99261 -0.14526,1.50103 -0.0242,0.55683 0.12105,1.25893 0.12105,1.6705 0,0.62947 -0.0968,1.16209 -0.0726,1.25893 0.0242,0.0242 0.0242,0.0726 0.0242,0.12105 -0.0242,0.0969 0.0484,0.16948 0,0.26632 -0.0242,0.0242 0.0968,-0.0484 0.0968,1.6705 0,0.12105 0.0968,0.67789 0.0726,0.77473 -0.0242,0.0968 -0.0726,1.04104 -0.0726,1.08946 0.29053,1.76734 0.55684,1.28314 1.57367,1.40419 1.11367,0.14526 1.9126,0.19368 2.32418,-0.75052 0.43578,-1.04104 -0.0726,-1.96103 0.0484,-5.66519 0,-0.21789 0.0484,-0.2421 0.0484,-0.53262 0,-0.19368 -0.0242,-3.00206 -0.0726,-3.09891 -0.14527,-0.55683 0.16947,-1.83997 0.0726,-2.66312 -0.24211,-1.96102 0.12105,-1.86418 -0.0968,-2.881011 -0.0726,-0.314733 -0.2179,-0.944198 -0.38737,-1.21051 -0.26631,-0.435784 -1.08946,-0.629465 -1.45261,-0.556835 z"
           id="path902" />
        <path
           d="m 143.93759,107.2945 c 0.75051,-0.0968 1.13788,1.01683 1.79155,1.98524 0.41158,0.60525 0.91999,0.99261 1.16209,1.28314 0.91999,1.08946 0.7021,1.30735 1.08946,1.9126 0.16947,0.29052 0.43578,0.46 0.58105,0.58105 0.38736,0.33894 0.50841,0.7263 0.77472,1.11367 0.58105,0.82314 0.41158,1.21051 1.45261,1.45261 0.26632,0.0484 1.50104,0.0968 1.76735,0.0726 0.14526,-0.0242 0.53262,0 0.99262,-0.31473 1.08946,-0.77473 0.55683,-2.39681 0.62946,-3.36522 0.0484,-0.77473 0.0726,-4.67257 0.12105,-5.37467 0.0484,-1.30735 -0.31473,-1.40419 -0.19368,-2.00944 0.0726,-0.46 0.36315,-0.79894 0.26631,-1.37998 -0.0242,-0.0484 0,-0.0726 -0.0242,-0.12105 -0.62946,-1.83998 -0.0242,-1.8884 -0.0242,-2.73576 -0.0242,-1.307348 -0.16947,-1.670501 -0.16947,-1.694711 -0.0484,-0.677886 -0.9442,-0.774727 -1.62208,-0.774727 -1.98524,-0.07263 -2.05787,0.556835 -2.20313,1.525243 -0.0484,0.363153 -0.0242,1.670505 -0.0968,2.033655 -0.14526,0.55684 0.0968,1.21051 0.0242,2.20313 -0.16947,1.71892 0.19368,2.8568 -0.50841,3.14733 -0.41158,0.16947 -0.79894,-0.2179 -1.13788,-0.50842 -0.60526,-0.50841 -0.50842,-0.7263 -1.11367,-1.79155 -0.0968,-0.19369 -0.84736,-1.62209 -1.52525,-2.22734 -0.79893,-0.7021 -0.45999,-0.62947 -0.91998,-1.62209 -0.24211,-0.55683 -0.82315,-1.258925 -1.21051,-1.743129 -0.36316,-0.459994 -0.7021,-0.653676 -1.21051,-0.847357 -0.26632,-0.09684 -0.96841,-0.314733 -1.57367,-0.290523 -0.53262,0 -1.37998,0.484204 -1.57366,0.968408 -0.16947,0.363153 -0.12105,0.605255 -0.12105,0.847357 0.0242,0.266312 0.0242,0.823144 0.0484,0.968404 0.0242,0.29053 -0.14526,1.13788 -0.0242,1.52525 0.12105,0.43578 0.14526,1.23472 0.0726,1.69471 -0.26631,1.83998 0.0242,1.57366 -0.12105,2.92943 -0.0726,0.67789 0.0726,2.10629 0.0242,2.25155 0,0.0484 -0.0968,1.11367 -0.0726,1.47683 0,0.29052 0.14526,0.87156 0.14526,1.11366 0.0484,0.46 -0.38736,3.05049 0.53262,3.82522 0.29053,0.2421 1.6463,0.2421 2.00945,0.14526 1.98524,-0.43579 1.06525,-2.6147 1.30735,-4.16416 0.21789,-1.30735 -0.33894,-3.94626 0.65368,-4.09152 z"
           id="path904" />
        <path
           d="m 160.47313,106.93135 c 0.0242,-0.16948 -0.0484,-0.43579 0.41157,-2.32418 0.12105,-0.55684 0.16947,-0.89578 1.42841,-1.96103 1.01682,-0.87157 1.57366,-1.1863 3.29258,-0.84736 0.55684,0.12106 1.47682,0.55684 1.96103,1.06525 0.53262,0.55684 0.33894,1.1863 0.99262,1.35577 0.50841,0.14527 2.08207,0.0968 2.44523,0.0242 0.94419,-0.19368 1.06525,-1.01682 0.67788,-1.83997 -0.9442,-1.98524 -0.91999,-2.10629 -2.83259,-3.5589 -1.54945,-1.1863 -1.8884,-0.605255 -2.6147,-0.774727 -0.16947,-0.04842 -0.16947,-0.09684 -0.82315,-0.242102 -0.82315,-0.169471 -0.79894,-0.193681 -1.47682,0.07263 -0.91999,0.338943 -1.50103,0 -2.6147,0.556835 -1.69472,0.823146 -2.68733,1.549454 -3.84942,3.462064 -1.23472,2.03365 -1.6463,4.9873 -1.42841,6.22202 0.0242,0.0726 0,1.88839 0.48421,2.73575 0.50841,0.89578 0.45999,1.40419 0.9442,1.81576 0.99261,0.87157 0.0726,0.7021 2.13049,2.05787 0.53263,0.33894 0.79894,0.16947 1.08946,0.26631 0.26631,0.12105 0.43579,0.36316 0.82315,0.58105 1.62208,0.9442 1.54945,0.41157 2.25155,0.4842 0.79893,0.0968 1.30735,0.19368 2.03365,-0.0242 0.0242,0 1.96103,-0.60525 2.5905,-0.67788 0.87156,-0.0968 1.21051,0.43578 2.22733,0.45999 2.39681,0 1.37999,-1.86419 1.59788,-3.53469 0.0968,-0.79894 0.0484,-1.01683 0,-1.98524 -0.0242,-0.45999 0.0242,-0.91998 -0.0242,-1.37998 -0.0242,-0.50841 0.0484,-0.36315 0.0242,-0.41157 -0.0242,-0.0484 -0.0242,-0.29052 -0.0242,-0.33894 -0.12105,-0.53263 0.0968,-1.6463 -0.58105,-1.91261 -0.45999,-0.19368 -1.45261,-0.19368 -1.50103,-0.21789 -0.53262,-0.19368 -2.15471,-0.0242 -3.41364,-0.0484 -1.25893,-0.0242 -1.74313,-0.0484 -1.83997,1.37998 0.0242,0.0968 -0.0726,0.75052 0.31473,1.28314 0.29052,0.43578 0.65367,0.29052 1.1863,0.29052 0.70209,0 1.35577,0.0968 1.79155,0.55684 0.0726,0.0968 0.19368,0.33894 0.19368,0.43578 0.0484,0.50842 -0.19368,0.72631 -0.41157,1.06525 -0.31473,0.4842 -0.7263,0.87157 -1.23472,1.08946 -1.33156,0.53262 -1.47682,0.31473 -2.17892,0.41157 -0.2421,0.0242 -0.77472,0.12105 -0.84735,0.12105 -0.0484,0 -0.0726,-0.0242 -0.12105,-0.0242 -0.0242,0.0242 -0.0484,-0.0242 -0.0726,0 -0.0242,-0.0484 -0.0968,0 -0.0968,-0.0484 -0.0242,-0.0242 -0.0242,-0.0242 -0.0484,-0.0242 -0.0484,-0.0242 -0.0726,-0.0968 -0.14526,-0.0968 -0.19368,-0.26631 -3.12311,-1.71892 -2.71154,-5.51992 z"
           id="path906" />
        <path
           d="m 176.11288,110.49025 c 1.4042,-0.0969 0.99262,-1.16209 1.57367,-3.99469 0.0726,-0.36315 0.26631,-2.92943 0.29052,-3.05048 0.0484,-0.16947 -0.12105,-1.47682 -0.0484,-1.98524 0.0968,-0.65367 0,-1.40419 0,-1.912604 0.0242,-0.435784 -0.33894,-0.992619 -0.9442,-1.16209 -0.67788,-0.217892 -1.08946,-0.484204 -1.79155,-0.290522 -1.23472,0.338942 -0.60526,1.694714 -0.9442,2.759966 -0.16947,0.45999 0.12105,2.63891 0.0726,2.80838 -0.0242,0.0968 -0.0484,1.13788 -0.0484,1.21051 -0.0242,0.36315 0.19368,1.13788 0.2421,1.47682 0.0968,0.62947 0.45999,1.45261 0.45999,1.93682 0.0242,0.12105 0.0726,1.16209 0.0726,1.1863 0.0484,0.9442 0.36315,1.08946 1.06524,1.01683 z m 1.81577,2.29996 c -0.33894,-0.87156 -0.75052,-0.82314 -1.30735,-0.91998 -0.53263,-0.0968 -1.01683,-0.0242 -1.47682,0.0484 -0.0968,0.0242 -0.14527,0.0726 -0.2179,0.0968 -0.31473,0.0726 -0.55683,0.31473 -0.70209,0.67788 -0.0968,0.29053 -0.0484,0.36316 -0.0726,0.50842 -0.0242,0.0484 -0.0484,0.0968 -0.0242,0.14526 0,0.12105 0.0242,0.62946 0.0484,0.79894 0.12105,0.55683 -0.16947,1.62208 0.91999,1.6705 0.0484,-0.0242 0.36315,0 0.43578,-0.0484 0.12105,0.0484 0.38736,0.0242 0.4842,0.0242 0.12105,0.0242 0.48421,0.0484 0.79894,0.0242 0.26631,-0.0242 0.50841,-0.0484 0.7021,-0.31473 0.16947,-0.29053 0.65367,-1.11367 0.60525,-1.54946 0.0484,-0.21789 -0.0968,-0.89577 -0.19368,-1.16209 z"
           id="path908" />
      </g>
      <g
         aria-label="EVERYTHING!"
         id="text2359-3"
         style="font-size:24.2102px;line-height:1.25;font-family:Generic;-inkscape-font-specification:Generic;text-align:center;letter-spacing:0px;text-anchor:middle;fill:none;stroke:#000000;stroke-width:0.696">
        <path
           d="m 36.445695,107.37893 c 0,0 0,0 0,0 0,0 0,0 0,0 0.266313,-0.29053 0.459994,-1.11367 0.484204,-1.54946 0,-1.50103 -1.452612,-0.91998 -2.324179,-1.11367 -0.895777,-0.19368 -1.404191,0.26632 -2.033657,0.14526 -0.532624,-0.0968 -1.912605,0.48421 -3.244166,-0.0726 -0.605255,-0.26631 -0.895778,-0.60525 -0.919988,-1.40419 -0.02421,-0.9442 0.145261,-1.47682 1.065249,-1.79155 0.193682,-0.0726 0.605255,-0.12105 0.895777,-0.0484 0.02421,0 0.629465,0.0726 0.677886,0.0726 0.798936,0.19368 1.162089,0.14526 1.476822,0.0726 0.145261,-0.0242 1.016828,-0.26631 1.21051,-0.21789 0.193682,-0.0484 0.653675,0.0242 0.871567,0.0726 0.581045,0.0968 0.363153,0.0242 1.283141,0.0242 0.750516,0 1.404191,0.12105 1.646293,-0.55684 0.169472,-0.50841 0.193682,-0.82314 0.169472,-1.355768 -0.04842,-0.629465 -0.121051,-1.16209 -0.581045,-1.525243 -0.556835,-0.459993 -3.462059,-0.242102 -4.067314,-0.169471 -0.02421,0.02421 -0.895777,-0.07263 -1.839975,-0.07263 -0.435783,-0.02421 -2.638911,0.04842 -2.687332,0.07263 -0.04842,-0.02421 -1.162089,-0.07263 -1.21051,-0.07263 -0.02421,0 -0.04842,0 -0.09684,0 -0.242102,0 -0.823146,0.04842 -0.823146,0.04842 -0.774727,-0.02421 -1.404192,-0.121051 -1.815765,0.532624 -0.338943,0.556835 -0.04842,0.944198 -0.145262,2.178918 -0.169471,2.08208 -0.09684,2.68733 -0.121051,2.75996 0,0.0484 -0.09684,0.91999 -0.09684,1.1863 0,0.0242 0.09684,1.91261 0.09684,1.91261 0,0.0484 -0.07263,2.03366 -0.07263,2.08208 0,0.21789 0.09684,0.7263 0.145261,0.91998 0.07263,0.26632 -0.02421,0.75052 -0.04842,1.04104 -0.07263,0.53263 -0.04842,0.62947 -0.04842,0.67789 -0.02421,0.0484 -0.242102,1.37998 -0.121051,1.81576 0.09684,0.38737 0.145261,1.25893 0.363153,1.74314 0.02421,0.0484 0.07263,0.0726 0.09684,0.12105 0.07263,0.0484 0.121051,0.12105 0.217892,0.12105 0.04842,0.0242 0.532624,0.16947 0.919987,0.33894 0.968408,0.38736 1.307351,0.0726 2.638912,0.0726 1.646294,0.0242 1.21051,-0.36315 2.832593,0.0242 0.459994,0.0968 1.622084,0 2.39681,0.0242 0.242102,0 0.508414,0.0242 0.774727,-0.0484 0.04842,0.0242 0.484204,-0.0484 0.581044,-0.0484 0.290523,-0.0242 1.670504,0.19368 2.154708,-0.0726 0.314733,-0.16947 0.363153,-0.38736 0.435784,-0.55683 0.02421,-0.0968 0.04842,-0.19369 0.04842,-0.29053 0.02421,-0.0726 0.04842,-0.14526 0.04842,-0.21789 0,-0.0242 0.04842,-0.41157 0.04842,-0.41157 0,-0.0726 -0.02421,-0.14526 0.02421,-0.19368 -0.07263,-0.21789 0,-1.01683 -0.266312,-1.50104 -0.338943,-0.53262 -1.041039,-0.55683 -1.670504,-0.60525 -0.266312,0 -1.21051,0.0242 -1.404191,0.0726 -0.435784,0.0726 -0.968408,-0.0242 -1.283141,-0.0242 -2.663122,-0.12105 -3.897842,0.36315 -4.454677,-0.45999 -0.508414,-0.72631 -0.314732,-3.00207 0.726306,-2.97786 0.169472,0 0.338943,-0.0242 0.484204,0.0242 0.242102,0.0484 1.355771,-0.26631 1.428402,-0.2421 0.07263,0.0242 0.145261,0.0242 0.193682,0.0242 0.581044,0.14526 0.871567,0.12105 1.815765,0.0968 1.162089,-0.0484 1.331561,0.33894 2.324179,-0.0726 0.266312,-0.12105 0.629465,-0.2421 0.798936,-0.60525 0,0 0,0 0,0 z"
           id="path846" />
        <path
           d="m 40.246682,97.622215 c -0.798936,0.145261 -1.355771,0.145261 -1.597873,0.581045 -0.266312,0.556835 -0.217892,0.871567 0.07263,1.452612 0.435783,0.871568 0.435783,1.549448 1.089459,2.929438 0.484204,0.99261 0.217891,1.04103 0.532624,1.88839 0.07263,0.16947 0.581045,1.21051 0.823147,2.03366 0.363153,1.25893 0.459994,0.84736 0.750516,1.81576 0.02421,0.0726 0.121051,0.62947 0.290522,1.06525 0.02421,0.0242 0.266313,0.77473 0.266313,0.79894 0.07263,0.33894 0.411573,0.9442 0.750516,1.9126 0.314732,0.91999 0.968408,1.54946 1.137879,1.8884 0.169471,0.43578 0.242102,1.28314 0.992618,1.28314 0.169472,-0.0242 0.338943,0 0.508414,-0.0242 0.944198,-0.19368 1.041039,0.0242 1.404192,0.0242 0.508414,-0.0242 0.532624,-0.0726 1.065249,-0.65367 0.314732,-0.36316 0.387363,-0.53263 0.459994,-0.7021 0.266312,-0.65368 0.411573,-1.21051 0.435783,-1.37998 0.169472,-1.11367 0.387363,-1.23472 0.508414,-1.54945 0.193682,-0.55684 0.07263,-0.43579 0.242102,-0.99262 0.07263,-0.26632 0.895778,-1.8884 0.992619,-2.34839 0.09684,-0.58105 0.750516,-2.54207 1.016828,-3.0747 0.242102,-0.45999 0.435783,-0.9442 0.435783,-0.99262 0.217892,-0.87156 0.411574,-0.84735 0.556835,-1.96102 0.145261,-1.23472 0.290522,-0.65368 0.484204,-1.59788 0.02421,-0.145256 0.07263,-0.484199 0.07263,-0.484199 0.169471,-0.629465 0.459993,-0.895777 0.290522,-1.428402 -0.09684,-0.363153 -0.629465,-0.290522 -2.808383,-0.314732 -0.629465,0 -1.041039,0.338942 -1.23472,0.750516 -0.798937,1.815767 -2.106288,7.093587 -2.42102,7.916737 -0.09684,0.29052 -0.217892,0.91999 -0.823147,1.16209 -0.411573,0.14526 -0.774726,-0.0242 -1.016828,-0.41158 -0.290523,-0.4842 -1.11367,-3.24416 -1.1863,-3.60732 -0.242102,-1.28314 -1.089459,-1.21051 -0.968408,-1.88839 0.217892,-1.16209 -0.556835,-2.009448 -0.750516,-2.784174 -0.121051,-0.508414 -0.169472,-0.871567 -0.653676,-1.065249 -0.266312,-0.09684 -1.089459,-0.314732 -1.355771,-0.266312 -0.121051,-0.02421 -0.242102,0 -0.363153,0.02421 z"
           id="path848" />
        <path
           d="m 67.313644,107.37893 c 0,0 0,0 0,0 0,0 0,0 0,0 0.266312,-0.29053 0.459994,-1.11367 0.484204,-1.54946 0,-1.50103 -1.452612,-0.91998 -2.324179,-1.11367 -0.895778,-0.19368 -1.404192,0.26632 -2.033657,0.14526 -0.532624,-0.0968 -1.912606,0.48421 -3.244167,-0.0726 -0.605255,-0.26631 -0.895777,-0.60525 -0.919987,-1.40419 -0.02421,-0.9442 0.145261,-1.47682 1.065248,-1.79155 0.193682,-0.0726 0.605255,-0.12105 0.895778,-0.0484 0.02421,0 0.629465,0.0726 0.677885,0.0726 0.798937,0.19368 1.16209,0.14526 1.476823,0.0726 0.145261,-0.0242 1.016828,-0.26631 1.21051,-0.21789 0.193681,-0.0484 0.653675,0.0242 0.871567,0.0726 0.581044,0.0968 0.363153,0.0242 1.28314,0.0242 0.750516,0 1.404192,0.12105 1.646294,-0.55684 0.169471,-0.50841 0.193681,-0.82314 0.169471,-1.355768 -0.04842,-0.629465 -0.121051,-1.16209 -0.581045,-1.525243 -0.556834,-0.459993 -3.462058,-0.242102 -4.067313,-0.169471 -0.02421,0.02421 -0.895777,-0.07263 -1.839975,-0.07263 -0.435784,-0.02421 -2.638912,0.04842 -2.687332,0.07263 -0.04842,-0.02421 -1.16209,-0.07263 -1.21051,-0.07263 -0.02421,0 -0.04842,0 -0.09684,0 -0.242102,0 -0.823147,0.04842 -0.823147,0.04842 -0.774726,-0.02421 -1.404191,-0.121051 -1.815765,0.532624 -0.338943,0.556835 -0.04842,0.944198 -0.145261,2.178918 -0.169471,2.08208 -0.09684,2.68733 -0.121051,2.75996 0,0.0484 -0.09684,0.91999 -0.09684,1.1863 0,0.0242 0.09684,1.91261 0.09684,1.91261 0,0.0484 -0.07263,2.03366 -0.07263,2.08208 0,0.21789 0.09684,0.7263 0.145262,0.91998 0.07263,0.26632 -0.02421,0.75052 -0.04842,1.04104 -0.07263,0.53263 -0.04842,0.62947 -0.04842,0.67789 -0.02421,0.0484 -0.242102,1.37998 -0.121051,1.81576 0.09684,0.38737 0.145261,1.25893 0.363153,1.74314 0.02421,0.0484 0.07263,0.0726 0.09684,0.12105 0.07263,0.0484 0.121051,0.12105 0.217891,0.12105 0.04842,0.0242 0.532625,0.16947 0.919988,0.33894 0.968408,0.38736 1.307351,0.0726 2.638912,0.0726 1.646293,0.0242 1.21051,-0.36315 2.832593,0.0242 0.459994,0.0968 1.622083,0 2.39681,0.0242 0.242102,0 0.508414,0.0242 0.774726,-0.0484 0.04842,0.0242 0.484204,-0.0484 0.581045,-0.0484 0.290522,-0.0242 1.670504,0.19368 2.154708,-0.0726 0.314732,-0.16947 0.363153,-0.38736 0.435783,-0.55683 0.02421,-0.0968 0.04842,-0.19369 0.04842,-0.29053 0.02421,-0.0726 0.04842,-0.14526 0.04842,-0.21789 0,-0.0242 0.04842,-0.41157 0.04842,-0.41157 0,-0.0726 -0.02421,-0.14526 0.02421,-0.19368 -0.07263,-0.21789 0,-1.01683 -0.266313,-1.50104 -0.338942,-0.53262 -1.041038,-0.55683 -1.670503,-0.60525 -0.266313,0 -1.21051,0.0242 -1.404192,0.0726 -0.435783,0.0726 -0.968408,-0.0242 -1.28314,-0.0242 -2.663122,-0.12105 -3.897843,0.36315 -4.454677,-0.45999 -0.508414,-0.72631 -0.314733,-3.00207 0.726306,-2.97786 0.169471,0 0.338943,-0.0242 0.484204,0.0242 0.242102,0.0484 1.355771,-0.26631 1.428402,-0.2421 0.07263,0.0242 0.145261,0.0242 0.193681,0.0242 0.581045,0.14526 0.871567,0.12105 1.815765,0.0968 1.16209,-0.0484 1.331561,0.33894 2.324179,-0.0726 0.266312,-0.12105 0.629465,-0.2421 0.798937,-0.60525 0,0 0,0 0,0 z"
           id="path850" />
        <path
           d="m 73.438809,115.3925 c 0.847357,-0.19368 0.919987,-0.36315 0.968408,-1.23472 0,-0.16947 0.09684,-0.53262 0.09684,-0.62946 0,-0.0242 0.07263,-0.67789 0.07263,-0.7021 0.314733,-2.15471 -0.750516,-4.11573 1.307351,-4.06731 0.944198,0.0242 2.44523,-0.38737 3.510479,0.38736 0.459994,0.33894 0.871567,1.21051 0.992618,1.74313 0.217892,0.91999 0.121051,1.01683 0.266312,1.76735 0.07263,0.29052 0.314733,1.25893 0.338943,1.59787 0,0.65368 0.169472,1.23472 0.847357,1.21051 1.670504,-0.0242 2.227338,0.21789 2.735753,-0.0484 0.556834,-0.31473 0.677885,-1.06525 0.484204,-1.62208 -0.09684,-0.33894 -0.266313,-0.77473 -0.266313,-1.23472 0.02421,-0.77473 0.145262,-1.37998 -0.02421,-1.91261 -0.435783,-1.59787 0,-1.01683 -0.871567,-2.59049 -0.314733,-0.60525 -0.484204,-1.16209 -0.09684,-1.76734 0.338943,-0.53263 0.338943,-0.19369 0.871567,-1.81577 0.121051,-0.36315 0.314733,-1.23472 0.290523,-1.64629 -0.07263,-1.74314 -0.653676,-2.22734 -0.847357,-2.54207 -0.629465,-1.041041 -0.653676,-0.798939 -1.283141,-1.186303 -0.338943,-0.193681 -0.605255,-0.459993 -0.992618,-0.629465 -1.331561,-0.629465 -2.590491,-0.217892 -3.60732,-0.435783 -0.363153,-0.09684 -1.452612,-0.02421 -1.912605,-0.07263 -0.435784,-0.04842 -0.992619,0.193682 -1.718925,0 -0.556834,-0.169471 -0.847356,-0.04842 -1.597873,0 -0.242102,0 -0.968408,-0.217892 -1.815765,0.314733 -0.919987,0.581044 -0.629465,1.355771 -0.726306,2.590488 -0.07263,0.82315 0.193682,1.21051 0.169472,1.52524 0.121051,0.29053 -0.217892,0.84736 -0.242102,2.27576 -0.02421,0.12105 0.169471,1.1863 0.121051,1.28314 0.04842,0.19369 0.02421,0.58105 -0.04842,1.37999 0,0.16947 0.145262,0.67788 0.02421,1.23472 -0.217892,1.11366 -0.04842,1.71892 0.02421,3.38942 0,0.12105 -0.09684,1.25893 0,1.79156 0.02421,0.0726 -0.02421,0.16947 0.02421,0.26631 0,0.0242 0,0.0484 -0.02421,0.0484 0,0.0484 0,0.29052 0,0.4842 0,0.26632 0.07263,0.62947 0.338943,0.75052 0.290522,0.16947 0.459993,0.12105 1.331561,0.14526 0.02421,0 0.07263,-0.0484 0.09684,-0.0242 0.193682,0.0242 0.847357,0.0484 1.16209,-0.0242 z m 1.21051,-12.22615 c -0.02421,-0.0726 0.02421,-0.14526 0.02421,-0.2421 -0.02421,-0.19368 0,-0.21789 0.02421,-0.31473 0.02421,-0.24211 0.02421,-0.55684 0.314733,-0.87157 0.290522,-0.31473 0.653675,-0.33894 0.944198,-0.38736 1.016828,-0.14527 2.033656,-0.26632 3.050485,0.0242 0.895777,0.2421 1.162089,0.31473 1.476822,1.16209 0.169471,0.43578 0.217892,1.04103 0.02421,1.59787 -0.459994,1.25893 -0.314732,1.40419 -1.331561,1.62208 -0.653675,0.14526 -1.25893,-0.0242 -1.791555,0.0242 -0.07263,0 -0.581044,0.0242 -1.331561,0 -0.387363,0 -0.847357,-0.12105 -1.113669,-0.43578 -0.363153,-0.41157 -0.217892,-1.91261 -0.290522,-2.17892 z"
           id="path852" />
        <path
           d="m 91.112217,115.02935 c 0.121051,0.45999 0.508414,0.55683 0.992618,0.53262 0.677886,-0.0726 0.508414,0 0.581045,-0.0242 0.04842,-0.0242 0.121051,-0.0242 0.193681,-0.0242 0.459994,0 0.798937,-0.0968 0.944198,-0.12105 0.581045,-0.0968 0.895778,0 1.016828,-0.19368 0.266313,-0.14526 0.290523,-0.67789 0.290523,-0.72631 0.121051,-0.53262 0.09684,-1.13788 0,-1.71892 -0.04842,-0.31473 -0.04842,-0.43578 0.07263,-1.13788 0.04842,-0.4842 -0.04842,-1.01683 -0.04842,-1.08946 0,-2.08208 0.726306,-2.51786 1.113669,-3.3168 0.605255,-1.21051 0.508414,-0.99261 0.871567,-1.50103 0.459994,-0.65367 0.266313,-0.60525 0.944198,-1.62208 0.847357,-1.28314 0.411574,-1.21051 1.23472,-2.27576 0.605255,-0.75052 0.532625,-0.67789 0.823146,-1.1863 0.0726,-0.14526 0.82315,-1.936816 0.84736,-2.227338 0.0726,-0.750517 -1.258932,-0.556835 -1.501034,-0.581045 -0.04842,-0.02421 -0.895778,0.02421 -0.944198,0.04842 -1.089459,0.09684 -1.137879,0.581045 -1.791555,1.283141 -0.387363,0.387363 -2.033656,3.365222 -2.057867,3.389432 -0.217891,0.50841 -0.242102,0.7263 -0.435783,0.9684 -0.145261,0.19369 -0.532625,0.48421 -0.895778,0.53263 -0.653675,0.0968 -1.137879,-0.72631 -1.573663,-1.35577 -0.581044,-0.84736 -0.798936,-1.04104 -1.21051,-2.03366 -0.04842,-0.14526 -0.121051,-0.4842 -0.581044,-1.137879 -1.065249,-1.428402 -0.629466,-1.476822 -2.445231,-1.743135 -0.09684,0 -1.379981,0.07263 -1.743134,0.484204 -0.411573,0.459994 -0.242102,0.750517 -0.02421,1.331561 0.798937,2.154709 2.009446,3.607319 2.324179,4.260999 0.266312,0.53262 0.217892,0.70209 0.677886,1.40419 0.435783,0.62946 0.581044,1.1863 1.016828,1.69471 0.895777,1.06525 0.677886,0.43579 1.16209,2.29997 0.387363,1.4284 0.04842,1.98524 0.09684,3.0747 0,0.0968 0.02421,0.16947 0,0.2421 0,0.0726 0.02421,0.16947 0.02421,0.2421 0.07263,1.23472 -0.04842,1.93682 0.02421,2.22734 z"
           id="path854" />
        <path
           d="m 106.12251,114.42409 c 0,0.82315 0.46,1.01683 1.08946,1.11367 0.0242,0.0242 0.38737,0.0484 0.43579,0.0242 0.0242,0 0.0484,0 0.0726,0 0.0726,0.0242 0.14526,0 0.21789,0 0.58104,-0.0726 1.81576,0.36316 2.25155,-1.06525 0.26631,-0.91998 -0.0968,-1.79155 0.0968,-3.12311 0.0726,-0.50842 0,-1.28314 -0.0484,-1.40419 -0.0484,-0.19368 -0.0242,-0.41158 0,-0.62947 0.0484,-0.0726 0.19368,-0.89578 0.16947,-1.08946 -0.0242,-0.19368 0.0242,0 -0.0726,-0.9442 -0.0242,-0.0968 -0.0726,-0.19368 -0.0484,-0.31473 -0.0726,-0.19368 -0.14526,-0.77472 -0.0726,-1.04104 0.16947,-0.65367 0.0242,-2.27576 0.0242,-2.32418 0.12105,-0.43578 0.0484,-1.23472 0.33894,-1.62208 0.33894,-0.45999 0.91999,-0.33894 1.1863,-0.38736 0.16947,-0.0484 1.64629,-0.19368 2.00945,-0.16947 1.96102,0.0968 1.47682,-1.13788 1.4284,-1.743138 -0.0968,-0.847357 0.0968,-1.501032 -0.50842,-1.743134 -0.36315,-0.145261 -1.13788,-0.217892 -1.47682,-0.169471 -1.28314,0.217891 -0.77472,0.169471 -1.71892,0.02421 -1.59788,-0.266312 -1.45261,0.121051 -2.54207,0 -1.25893,-0.145261 -0.87157,0.217892 -2.46944,0.02421 -1.23472,-0.145261 -2.22734,0.217892 -2.63892,0.09684 -1.45261,0.04842 -2.88101,-0.217892 -2.90522,1.016828 -0.0242,0.242102 0.0242,1.331565 0.0242,1.355775 0.0484,0.9442 0.14526,1.25893 1.86419,1.23472 0.62946,0 1.08946,0.16947 1.64629,0.16947 2.29997,-0.0726 1.59787,2.68733 1.6705,3.97047 0.12105,1.59787 -0.0726,1.54945 0.0484,2.00945 0.0968,0.45999 0.29053,0.82314 0.0726,1.64629 -0.12105,0.48421 -0.0968,1.93682 -0.12105,2.20313 -0.14526,1.16209 0,1.40419 0,1.69471 -0.0242,1.45262 -0.0242,0.53263 -0.0242,1.1863 z"
           id="path856" />
        <path
           d="m 116.55711,112.58412 c 0.14526,1.21051 0,2.27576 0.96841,2.56628 0.0968,0.0484 1.40419,0.12105 1.54945,0.14526 0.4842,0 0.79894,-0.58104 0.96841,-0.75052 0.60525,-0.60525 0.60525,-0.94419 0.43578,-2.22733 -0.0968,-0.75052 0.26631,-1.33156 0.12105,-2.05787 0,-0.0726 0.0242,-0.12105 0.0242,-0.19368 0.0242,-0.12105 -0.0242,-0.96841 0.43579,-1.37998 0.55683,-0.50842 1.01683,-0.41158 2.13049,-0.48421 0.79894,-0.0242 0.72631,0.0242 0.91999,-0.0242 0.0242,0 0.0242,0.0242 0.14526,0 0.0726,0 0.16948,-0.0242 0.24211,0 0.0484,0 0.87156,-0.0968 1.50103,0.0726 1.23472,0.29053 0.91999,2.17892 1.11367,2.66312 0.0242,0 0.0242,0.0242 0.0242,0.0484 -0.0242,0.12105 0.0242,0.2421 0.0484,0.36315 0.0968,1.52524 -0.53263,3.51048 0.55683,3.92205 0.41158,0.16947 1.37998,-0.0242 1.86419,0.0968 0.16947,0.0484 0.53262,0.0242 0.58104,0.0242 0.53263,-0.0242 0.84736,-0.70209 0.96841,-1.25893 0.0726,-0.38736 -0.16947,-1.08946 -0.14526,-1.35577 0,-0.0968 0,-0.21789 0,-0.31473 0,-0.12105 0.21789,-1.21051 0.21789,-1.50104 -0.0242,-0.36315 -0.0968,-2.13049 -0.0484,-2.29996 0.12105,-0.38737 -0.0968,-1.71893 0.0242,-2.75997 0.0726,-0.60525 -0.0968,-1.37998 0.0242,-2.17891 0.12105,-0.87157 -0.0726,-1.33157 -0.14526,-2.34839 -0.0726,-1.23472 0.26631,-1.839979 0.16947,-2.469444 -0.16947,-0.944198 -0.75051,-0.847357 -2.73575,-0.919988 -0.50842,0 -1.06525,0.242102 -1.23472,0.798937 -0.0968,0.314732 -0.0242,0.726306 -0.0726,1.622085 0,0.16947 -0.12105,1.35577 0.0484,2.15471 0.16947,0.89577 -0.50842,1.71892 -1.40419,1.98523 -0.79894,0.2421 -1.71893,-0.14526 -2.66313,0 -0.31473,0.0726 -1.25893,0.0726 -1.6705,-0.0484 -0.45999,-0.14526 -0.75052,-0.33894 -1.04104,-0.84736 -0.29052,-0.53262 -0.0726,-0.9684 -0.0484,-1.35577 0.0726,-1.25893 -0.0484,-1.50103 -0.0484,-1.57366 -0.0484,-0.12105 -0.0242,-0.21789 -0.0484,-0.33894 -0.14526,-0.411576 0.31473,-1.501035 -0.29052,-2.057869 -0.36315,-0.314733 -1.25893,-0.411574 -1.62208,-0.338943 -0.53263,0.09684 -0.60526,0.290522 -1.08946,0.435784 -0.14526,0.04842 -0.46,0.04842 -0.67789,0.363153 -0.31473,0.459993 -0.14526,1.573665 -0.14526,2.130495 0.0242,0.62947 -0.0726,1.25893 0,1.59788 0.0484,0.41157 -0.0726,1.52524 0,2.20312 0.0726,0.89578 0,1.21051 -0.0242,1.69472 -0.12105,1.45261 0.0484,1.33156 0.0242,1.88839 0,0.0726 -0.0242,0.14526 0,0.21789 0.0242,0.0242 0.0242,0.0484 0,0.0726 -0.0242,0.0968 0,0.19368 0,0.29052 -0.0242,0.29052 -0.21789,1.06525 -0.0484,1.71892 0.16947,0.53263 -0.0242,1.16209 0.0968,2.00945 z"
           id="path858" />
        <path
           d="m 135.73157,97.912738 c -0.0484,0.02421 -1.28314,0.290522 -1.54945,0.435783 -0.26631,0.169472 -0.58105,0.581045 -0.58105,1.113669 0,2.15471 -0.29052,0.87157 -0.0242,3.72837 0,0.0968 -0.0484,0.19368 0,0.26631 -0.0484,0.12105 -0.0484,0.7021 -0.0484,0.79894 -0.0484,0.29052 0.0726,0.87157 0.12105,1.25893 0.12106,0.77473 -0.12105,0.99262 -0.14526,1.50103 -0.0242,0.55684 0.12105,1.25893 0.12105,1.67051 0,0.62946 -0.0968,1.16209 -0.0726,1.25893 0.0242,0.0242 0.0242,0.0726 0.0242,0.12105 -0.0242,0.0968 0.0484,0.16947 0,0.26631 -0.0242,0.0242 0.0968,-0.0484 0.0968,1.6705 0,0.12105 0.0968,0.67789 0.0726,0.77473 -0.0242,0.0968 -0.0726,1.04104 -0.0726,1.08946 0.29053,1.76734 0.55684,1.28314 1.57367,1.40419 1.11367,0.14526 1.9126,0.19368 2.32418,-0.75052 0.43578,-1.04103 -0.0726,-1.96102 0.0484,-5.66518 0,-0.21789 0.0484,-0.2421 0.0484,-0.53263 0,-0.19368 -0.0242,-3.00206 -0.0726,-3.0989 -0.14526,-0.55684 0.16947,-1.83998 0.0726,-2.66312 -0.2421,-1.96103 0.12105,-1.86419 -0.0968,-2.881018 -0.0726,-0.314732 -0.21789,-0.944198 -0.38737,-1.21051 -0.26631,-0.435783 -1.08946,-0.629465 -1.45261,-0.556834 z"
           id="path860" />
        <path
           d="m 144.56828,107.03998 c 0.75052,-0.0968 1.13788,1.01683 1.79155,1.98524 0.41158,0.60525 0.91999,0.99262 1.16209,1.28314 0.91999,1.08946 0.7021,1.30735 1.08946,1.91261 0.16947,0.29052 0.43579,0.45999 0.58105,0.58104 0.38736,0.33894 0.50841,0.72631 0.77472,1.11367 0.58105,0.82315 0.41158,1.21051 1.45262,1.45261 0.26631,0.0484 1.50103,0.0968 1.76734,0.0726 0.14526,-0.0242 0.53262,0 0.99262,-0.31473 1.08946,-0.77473 0.55683,-2.39681 0.62946,-3.36522 0.0484,-0.77472 0.0726,-4.67257 0.12105,-5.37466 0.0484,-1.30735 -0.31473,-1.40419 -0.19368,-2.00945 0.0726,-0.45999 0.36316,-0.79894 0.26632,-1.37998 -0.0242,-0.0484 0,-0.0726 -0.0242,-0.12105 -0.62946,-1.83998 -0.0242,-1.8884 -0.0242,-2.73575 -0.0242,-1.307355 -0.16947,-1.670508 -0.16947,-1.694718 -0.0484,-0.677886 -0.94419,-0.774726 -1.62208,-0.774726 -1.98524,-0.07263 -2.05787,0.556834 -2.20313,1.525242 -0.0484,0.363153 -0.0242,1.670502 -0.0968,2.033652 -0.14526,0.55684 0.0968,1.21051 0.0242,2.20313 -0.16947,1.71893 0.19368,2.85681 -0.50841,3.14733 -0.41158,0.16947 -0.79894,-0.21789 -1.13788,-0.50842 -0.60526,-0.50841 -0.50842,-0.7263 -1.11367,-1.79155 -0.0968,-0.19368 -0.84736,-1.62208 -1.52524,-2.22734 -0.79894,-0.70209 -0.46,-0.62946 -0.91999,-1.62208 -0.2421,-0.556836 -0.82315,-1.258932 -1.21051,-1.743136 -0.36315,-0.459994 -0.7021,-0.653675 -1.21051,-0.847357 -0.26631,-0.09684 -0.96841,-0.314733 -1.57366,-0.290522 -0.53263,0 -1.37999,0.484204 -1.57367,0.968408 -0.16947,0.363153 -0.12105,0.605255 -0.12105,0.847357 0.0242,0.266312 0.0242,0.82315 0.0484,0.96841 0.0242,0.29052 -0.14526,1.13788 -0.0242,1.52524 0.12105,0.43578 0.14526,1.23472 0.0726,1.69471 -0.26631,1.83998 0.0242,1.57367 -0.12105,2.92944 -0.0726,0.67788 0.0726,2.10629 0.0242,2.25155 0,0.0484 -0.0968,1.11367 -0.0726,1.47682 0,0.29052 0.14526,0.87157 0.14526,1.11367 0.0484,0.45999 -0.38736,3.05048 0.53263,3.82521 0.29052,0.2421 1.64629,0.2421 2.00944,0.14526 1.98524,-0.43578 1.06525,-2.6147 1.30735,-4.16415 0.2179,-1.30735 -0.33894,-3.94627 0.65368,-4.09153 z"
           id="path862" />
        <path
           d="m 161.10382,106.67683 c 0.0242,-0.16947 -0.0484,-0.43578 0.41158,-2.32418 0.12105,-0.55683 0.16947,-0.89578 1.4284,-1.96103 1.01683,-0.87156 1.57366,-1.1863 3.29258,-0.84735 0.55684,0.12105 1.47683,0.55683 1.96103,1.06525 0.53262,0.55683 0.33894,1.1863 0.99262,1.35577 0.50841,0.14526 2.08208,0.0968 2.44523,0.0242 0.9442,-0.19368 1.06525,-1.01683 0.67788,-1.83998 -0.94419,-1.98523 -0.91998,-2.10628 -2.83259,-3.558897 -1.54945,-1.1863 -1.88839,-0.605255 -2.6147,-0.774726 -0.16947,-0.04842 -0.16947,-0.09684 -0.82315,-0.242102 -0.82314,-0.169472 -0.79893,-0.193682 -1.47682,0.07263 -0.91999,0.338943 -1.50103,0 -2.6147,0.556835 -1.69472,0.823147 -2.68733,1.549453 -3.84942,3.46206 -1.23472,2.03366 -1.6463,4.9873 -1.4284,6.22202 0.0242,0.0726 0,1.8884 0.4842,2.73575 0.50841,0.89578 0.45999,1.40419 0.9442,1.81577 0.99262,0.87156 0.0726,0.70209 2.13049,2.05786 0.53263,0.33895 0.79894,0.16948 1.08946,0.26632 0.26632,0.12105 0.43579,0.36315 0.82315,0.58104 1.62208,0.9442 1.54945,0.41157 2.25155,0.48421 0.79894,0.0968 1.30735,0.19368 2.03366,-0.0242 0.0242,0 1.96102,-0.60525 2.59049,-0.67788 0.87156,-0.0968 1.21051,0.43578 2.22734,0.45999 2.3968,0 1.37998,-1.86418 1.59787,-3.53469 0.0968,-0.79893 0.0484,-1.01682 0,-1.98523 -0.0242,-0.46 0.0242,-0.91999 -0.0242,-1.37998 -0.0242,-0.50842 0.0484,-0.36316 0.0242,-0.41158 -0.0242,-0.0484 -0.0242,-0.29052 -0.0242,-0.33894 -0.12105,-0.53262 0.0968,-1.64629 -0.58105,-1.91261 -0.45999,-0.19368 -1.45261,-0.19368 -1.50103,-0.21789 -0.53262,-0.19368 -2.15471,-0.0242 -3.41364,-0.0484 -1.25893,-0.0242 -1.74313,-0.0484 -1.83997,1.37998 0.0242,0.0968 -0.0726,0.75052 0.31473,1.28314 0.29052,0.43579 0.65368,0.29053 1.1863,0.29053 0.7021,0 1.35577,0.0968 1.79155,0.55683 0.0726,0.0968 0.19369,0.33894 0.19369,0.43578 0.0484,0.50842 -0.19369,0.72631 -0.41158,1.06525 -0.31473,0.48421 -0.7263,0.87157 -1.23472,1.08946 -1.33156,0.53263 -1.47682,0.31473 -2.17892,0.41158 -0.2421,0.0242 -0.77472,0.12105 -0.84735,0.12105 -0.0484,0 -0.0726,-0.0242 -0.12105,-0.0242 -0.0242,0.0242 -0.0484,-0.0242 -0.0726,0 -0.0242,-0.0484 -0.0968,0 -0.0968,-0.0484 -0.0242,-0.0242 -0.0242,-0.0242 -0.0484,-0.0242 -0.0484,-0.0242 -0.0726,-0.0968 -0.14527,-0.0968 -0.19368,-0.26632 -3.12311,-1.71893 -2.71154,-5.51993 z"
           id="path864" />
        <path
           d="m 176.74358,110.23573 c 1.40419,-0.0968 0.99261,-1.16209 1.57366,-3.99468 0.0726,-0.36316 0.26631,-2.92944 0.29052,-3.05049 0.0484,-0.16947 -0.12105,-1.47682 -0.0484,-1.98524 0.0968,-0.65367 0,-1.404187 0,-1.912601 0.0242,-0.435784 -0.33894,-0.992618 -0.9442,-1.16209 -0.67788,-0.217891 -1.08946,-0.484204 -1.79155,-0.290522 -1.23472,0.338943 -0.60526,1.694714 -0.9442,2.759963 -0.16947,0.45999 0.12105,2.63891 0.0726,2.80838 -0.0242,0.0968 -0.0484,1.13788 -0.0484,1.21051 -0.0242,0.36316 0.19368,1.13788 0.2421,1.47682 0.0968,0.62947 0.46,1.45262 0.46,1.93682 0.0242,0.12105 0.0726,1.16209 0.0726,1.1863 0.0484,0.9442 0.36315,1.08946 1.06525,1.01683 z m 1.81576,2.29997 c -0.33894,-0.87157 -0.75052,-0.82315 -1.30735,-0.91999 -0.53262,-0.0968 -1.01683,-0.0242 -1.47682,0.0484 -0.0968,0.0242 -0.14526,0.0726 -0.21789,0.0968 -0.31474,0.0726 -0.55684,0.31473 -0.7021,0.67789 -0.0968,0.29052 -0.0484,0.36315 -0.0726,0.50841 -0.0242,0.0484 -0.0484,0.0968 -0.0242,0.14526 0,0.12105 0.0242,0.62947 0.0484,0.79894 0.12105,0.55683 -0.16947,1.62208 0.91999,1.6705 0.0484,-0.0242 0.36315,0 0.43578,-0.0484 0.12105,0.0484 0.38736,0.0242 0.4842,0.0242 0.12106,0.0242 0.48421,0.0484 0.79894,0.0242 0.26631,-0.0242 0.50842,-0.0484 0.7021,-0.31473 0.16947,-0.29052 0.65367,-1.11367 0.60525,-1.54945 0.0484,-0.21789 -0.0968,-0.89578 -0.19368,-1.16209 z"
           id="path866" />
      </g>
    </g>
  </g>
</svg>
